# xmcd
#
# Track frame offsets: 
#        183
#        12988
#        38843
#        55510
#        69498
#        84430
#        98550
#        116955
#        133243
#        154998
#        165300
#        193770
#        207623
#        225843
#        252773
#        268213
#
# Disc length: 3887 seconds
#
# Revision: 1
# Processed by: cddbd v1.5.2PL0 Copyright (c) Steve Scherf et al.
# Submitted via: ExactAudioCopy v0.99pb5
#
DISCID=d70f2d10
DTITLE=Muddy Waters - Fathers and Sons
DYEAR=1900
DGENRE=Blues
TTITLE0=All Aboard
TTITLE1=Mean Disposition
TTITLE2=Blow Wind Blow
TTITLE3=Can't Loose What You Ain't Never Had
TTITLE4=Walkin' Thru The Park
TTITLE5=Forty Days And Forty Nights
TTITLE6=Standin' Round Cryin'
TTITLE7=I'm Ready
TTITLE8=Twenty Four Hours
TTITLE9=Sugar Sweet
TTITLE10=Long Distance Call
TTITLE11=Baby, Please Don't Go
TTITLE12=Honey Bee
TTITLE13=The Same Thing
TTITLE14=Got My Mojo Working I
TTITLE15=Got My Mojo Working II
EXTD=
EXTT0=
EXTT1=
EXTT2=
EXTT3=
EXTT4=
EXTT5=
EXTT6=
EXTT7=
EXTT8=
EXTT9=
EXTT10=
EXTT11=
EXTT12=
EXTT13=
EXTT14=
EXTT15=
PLAYORDER=
